<svg xmlns="http://www.w3.org/2000/svg" viewBox="0 0 71.674 64.507">
  <defs>
    <style>
      .cls-1 {
        fill: #be5000;
      }

      .cls-2 {
        fill: #dc6e1e;
      }

      .cls-3 {
        fill: #4b8c41;
      }

      .cls-4 {
        fill: #91b945;
      }

      .cls-5 {
        fill: #d7e6e6;
      }

      .cls-6 {
        fill: #ff8773;
      }

      .cls-7 {
        fill: #fabe19;
      }

      .cls-8 {
        fill: #d7322d;
      }

      .cls-9 {
        fill: #f04b37;
      }

      .cls-10 {
        fill: #f5871e;
      }

      .cls-11 {
        fill: #ff6955;
      }
    </style>
  </defs>
  <g id="ramen" transform="translate(-16 -40)">
    <g id="Group_94" data-name="Group 94" transform="translate(18.389 59.113)">
      <path id="Path_337" data-name="Path 337" class="cls-1" d="M39.167,168H36.778A4.778,4.778,0,0,0,32,172.778v7.167H43.946v-7.167A4.778,4.778,0,0,0,39.167,168Z" transform="translate(-32 -168)"/>
    </g>
    <g id="Group_95" data-name="Group 95" transform="translate(20.778 61.502)">
      <path id="Path_338" data-name="Path 338" class="cls-2" d="M52.778,184H50.389A2.389,2.389,0,0,0,48,186.389v7.167h7.167v-7.167A2.389,2.389,0,0,0,52.778,184Z" transform="translate(-48 -184)"/>
    </g>
    <g id="Group_96" data-name="Group 96" transform="translate(32.724 63.891)">
      <path id="Path_339" data-name="Path 339" class="cls-3" d="M129.195,200h4.778a1.2,1.2,0,0,1,1.195,1.195v5.973H128v-5.973A1.2,1.2,0,0,1,129.195,200Z" transform="translate(-128 -200)"/>
    </g>
    <g id="Group_97" data-name="Group 97" transform="translate(37.502 61.502)">
      <path id="Path_340" data-name="Path 340" class="cls-4" d="M161.195,184h4.778a1.2,1.2,0,0,1,1.195,1.195v8.362H160v-8.362A1.2,1.2,0,0,1,161.195,184Z" transform="translate(-160 -184)"/>
    </g>
    <g id="Group_98" data-name="Group 98" transform="translate(70.95 63.891)">
      <circle id="Ellipse_13" data-name="Ellipse 13" class="cls-5" cx="7.167" cy="7.167" r="7.167" transform="translate(0 0)"/>
    </g>
    <g id="Group_99" data-name="Group 99" transform="translate(20.527 63.294)">
      <path id="Path_341" data-name="Path 341" class="cls-5" d="M60.306,203.765c0-.773,1.043-1.7.816-2.4-.235-.723-1.632-.86-2.07-1.462s-.144-1.978-.752-2.42-1.811.266-2.534.032c-.7-.227-1.258-1.514-2.031-1.514s-1.333,1.288-2.031,1.514c-.723.235-1.932-.47-2.534-.032s-.309,1.812-.752,2.42-1.836.739-2.07,1.462c-.227.7.816,1.627.816,2.4s-1.043,1.7-.816,2.4c.235.723,1.632.86,2.07,1.462s.144,1.978.752,2.42,1.811-.266,2.534-.032c.7.227,1.258,1.514,2.031,1.514s1.333-1.288,2.031-1.514c.723-.235,1.932.47,2.534.032s.309-1.812.752-2.42,1.836-.739,2.07-1.462C61.349,205.467,60.306,204.538,60.306,203.765Z" transform="translate(-46.317 -196)"/>
    </g>
    <g id="Group_100" data-name="Group 100" transform="translate(22.57 65.683)">
      <path id="Path_342" data-name="Path 342" class="cls-6" d="M65.376,222.751a5.376,5.376,0,1,1,5.376-5.376A5.382,5.382,0,0,1,65.376,222.751Zm0-9.557a4.181,4.181,0,1,0,4.181,4.181A4.186,4.186,0,0,0,65.376,213.195Z" transform="translate(-60 -212)"/>
    </g>
    <g id="Group_101" data-name="Group 101" transform="translate(25.357 68.471)">
      <path id="Path_343" data-name="Path 343" class="cls-6" d="M81.255,235.843a2.588,2.588,0,1,1,2.588-2.588A2.591,2.591,0,0,1,81.255,235.843Zm0-3.982a1.394,1.394,0,1,0,1.394,1.394A1.4,1.4,0,0,0,81.255,231.862Z" transform="translate(-78.667 -230.667)"/>
    </g>
    <g id="Group_102" data-name="Group 102" transform="translate(74.534 67.475)">
      <circle id="Ellipse_14" data-name="Ellipse 14" class="cls-7" cx="3.584" cy="3.584" r="3.584" transform="translate(0 0)"/>
    </g>
    <g id="Group_103" data-name="Group 103" transform="translate(60.199 63.891)">
      <circle id="Ellipse_15" data-name="Ellipse 15" class="cls-5" cx="7.167" cy="7.167" r="7.167" transform="translate(0 0)"/>
    </g>
    <g id="Group_104" data-name="Group 104" transform="translate(63.783 67.475)">
      <circle id="Ellipse_16" data-name="Ellipse 16" class="cls-7" cx="3.584" cy="3.584" r="3.584" transform="translate(0 0)"/>
    </g>
    <g id="Group_105" data-name="Group 105" transform="translate(37.502 40)">
      <path id="Path_344" data-name="Path 344" class="cls-8" d="M161.195,42.389h48.977V40H161.195a1.195,1.195,0,1,0,0,2.389Z" transform="translate(-160 -40)"/>
    </g>
    <g id="Group_106" data-name="Group 106" transform="translate(37.502 44.778)">
      <path id="Path_345" data-name="Path 345" class="cls-8" d="M161.195,74.389h48.977V72H161.195a1.195,1.195,0,1,0,0,2.389Z" transform="translate(-160 -72)"/>
    </g>
    <g id="Group_107" data-name="Group 107" transform="translate(37.502 40)">
      <path id="Path_346" data-name="Path 346" class="cls-9" d="M160,41.195h50.172V40H161.195A1.2,1.2,0,0,0,160,41.195Z" transform="translate(-160 -40)"/>
    </g>
    <g id="Group_108" data-name="Group 108" transform="translate(37.502 44.778)">
      <path id="Path_347" data-name="Path 347" class="cls-9" d="M160,73.195h50.172V72H161.195A1.2,1.2,0,0,0,160,73.195Z" transform="translate(-160 -72)"/>
    </g>
    <g id="Group_115" data-name="Group 115" transform="translate(39.294 41.792)">
      <g id="Group_109" data-name="Group 109" transform="translate(3.584 0)">
        <path id="Path_348" data-name="Path 348" class="cls-10" d="M197.792,83.059A1.792,1.792,0,0,1,196,81.267a5.475,5.475,0,0,1,1.634-3.923,2.014,2.014,0,0,0,0-3.144,5.527,5.527,0,0,1,0-7.847,2.013,2.013,0,0,0,0-3.143,5.526,5.526,0,0,1,0-7.847,2.063,2.063,0,0,0,.755-1.571,1.792,1.792,0,1,1,3.584,0,5.473,5.473,0,0,1-1.634,3.923,2.013,2.013,0,0,0,0,3.143,5.526,5.526,0,0,1,0,7.846,2.014,2.014,0,0,0,0,3.144,5.527,5.527,0,0,1,0,7.847,2.065,2.065,0,0,0-.755,1.573A1.792,1.792,0,0,1,197.792,83.059Z" transform="translate(-196 -52)"/>
      </g>
      <g id="Group_110" data-name="Group 110" transform="translate(0 0)">
        <path id="Path_349" data-name="Path 349" class="cls-7" d="M173.792,83.059A1.792,1.792,0,0,1,172,81.267a5.475,5.475,0,0,1,1.634-3.923,2.014,2.014,0,0,0,0-3.144,5.527,5.527,0,0,1,0-7.847,2.013,2.013,0,0,0,0-3.143,5.526,5.526,0,0,1,0-7.847,2.063,2.063,0,0,0,.755-1.571,1.792,1.792,0,0,1,3.584,0,5.473,5.473,0,0,1-1.634,3.923,2.013,2.013,0,0,0,0,3.143,5.526,5.526,0,0,1,0,7.846,2.014,2.014,0,0,0,0,3.144,5.527,5.527,0,0,1,0,7.847,2.065,2.065,0,0,0-.755,1.573A1.792,1.792,0,0,1,173.792,83.059Z" transform="translate(-172 -52)"/>
      </g>
      <g id="Group_111" data-name="Group 111" transform="translate(10.751 0)">
        <path id="Path_350" data-name="Path 350" class="cls-10" d="M245.792,83.059A1.792,1.792,0,0,1,244,81.267a5.475,5.475,0,0,1,1.634-3.923,2.014,2.014,0,0,0,0-3.144,5.526,5.526,0,0,1,0-7.847,2.013,2.013,0,0,0,0-3.143,5.526,5.526,0,0,1,0-7.847,2.063,2.063,0,0,0,.755-1.571,1.792,1.792,0,0,1,3.584,0,5.473,5.473,0,0,1-1.634,3.923,2.013,2.013,0,0,0,0,3.143,5.526,5.526,0,0,1,0,7.846,2.014,2.014,0,0,0,0,3.144,5.527,5.527,0,0,1,0,7.847,2.065,2.065,0,0,0-.755,1.573A1.792,1.792,0,0,1,245.792,83.059Z" transform="translate(-244 -52)"/>
      </g>
      <g id="Group_112" data-name="Group 112" transform="translate(7.167 0)">
        <path id="Path_351" data-name="Path 351" class="cls-7" d="M221.792,83.059A1.792,1.792,0,0,1,220,81.267a5.475,5.475,0,0,1,1.634-3.923,2.014,2.014,0,0,0,0-3.144,5.526,5.526,0,0,1,0-7.847,2.013,2.013,0,0,0,0-3.143,5.526,5.526,0,0,1,0-7.847,2.063,2.063,0,0,0,.755-1.571,1.792,1.792,0,0,1,3.584,0,5.473,5.473,0,0,1-1.634,3.923,2.013,2.013,0,0,0,0,3.143,5.526,5.526,0,0,1,0,7.846,2.014,2.014,0,0,0,0,3.144,5.527,5.527,0,0,1,0,7.847,2.065,2.065,0,0,0-.755,1.573A1.792,1.792,0,0,1,221.792,83.059Z" transform="translate(-220 -52)"/>
      </g>
      <g id="Group_113" data-name="Group 113" transform="translate(17.918 0)">
        <path id="Path_352" data-name="Path 352" class="cls-10" d="M293.792,83.059A1.792,1.792,0,0,1,292,81.267a5.475,5.475,0,0,1,1.634-3.923,2.014,2.014,0,0,0,0-3.144,5.527,5.527,0,0,1,0-7.847,2.013,2.013,0,0,0,0-3.143,5.526,5.526,0,0,1,0-7.847,2.063,2.063,0,0,0,.755-1.571,1.792,1.792,0,1,1,3.584,0,5.473,5.473,0,0,1-1.634,3.923,2.013,2.013,0,0,0,0,3.143,5.526,5.526,0,0,1,0,7.846,2.014,2.014,0,0,0,0,3.144,5.527,5.527,0,0,1,0,7.847,2.065,2.065,0,0,0-.755,1.573A1.792,1.792,0,0,1,293.792,83.059Z" transform="translate(-292 -52)"/>
      </g>
      <g id="Group_114" data-name="Group 114" transform="translate(14.335 0)">
        <path id="Path_353" data-name="Path 353" class="cls-7" d="M269.792,83.059A1.792,1.792,0,0,1,268,81.267a5.475,5.475,0,0,1,1.634-3.923,2.014,2.014,0,0,0,0-3.144,5.526,5.526,0,0,1,0-7.847,2.013,2.013,0,0,0,0-3.143,5.526,5.526,0,0,1,0-7.847,2.063,2.063,0,0,0,.755-1.571,1.792,1.792,0,0,1,3.584,0,5.473,5.473,0,0,1-1.634,3.923,2.013,2.013,0,0,0,0,3.143,5.526,5.526,0,0,1,0,7.846,2.014,2.014,0,0,0,0,3.144,5.527,5.527,0,0,1,0,7.847,2.065,2.065,0,0,0-.755,1.573A1.792,1.792,0,0,1,269.792,83.059Z" transform="translate(-268 -52)"/>
      </g>
    </g>
    <g id="Group_116" data-name="Group 116" transform="translate(16 71.059)">
      <path id="Path_354" data-name="Path 354" class="cls-9" d="M63.783,276.67H39.891A23.891,23.891,0,0,1,16,252.778v-2.389A2.389,2.389,0,0,1,18.389,248h66.9a2.389,2.389,0,0,1,2.389,2.389v2.389A23.891,23.891,0,0,1,63.783,276.67Z" transform="translate(-16 -248)"/>
    </g>
    <g id="Group_117" data-name="Group 117" transform="translate(18.389 73.448)">
      <path id="Path_355" data-name="Path 355" class="cls-11" d="M53.5,287.891a21.527,21.527,0,0,1-21.5-21.5v-1.195a1.195,1.195,0,0,1,2.389,0v1.195A19.135,19.135,0,0,0,53.5,285.5a1.195,1.195,0,1,1,0,2.389Z" transform="translate(-32 -264)"/>
    </g>
    <g id="Group_118" data-name="Group 118" transform="translate(39.891 71.059)">
      <path id="Path_356" data-name="Path 356" class="cls-8" d="M221.394,248H197.5a2.389,2.389,0,0,1,2.389,2.389v2.389A23.891,23.891,0,0,1,176,276.67h23.891a23.891,23.891,0,0,0,23.891-23.891v-2.389A2.389,2.389,0,0,0,221.394,248Z" transform="translate(-176 -248)"/>
    </g>
    <g id="Group_119" data-name="Group 119" transform="translate(39.891 99.728)">
      <path id="Path_357" data-name="Path 357" class="cls-8" d="M197.5,444.778H178.389A2.389,2.389,0,0,1,176,442.389V440h23.891v2.389A2.389,2.389,0,0,1,197.5,444.778Z" transform="translate(-176 -440)"/>
    </g>
  </g>
</svg>
