<svg xmlns="http://www.w3.org/2000/svg" viewBox="0 0 69.206 69.922">
  <defs>
    <style>
      .cls-1 {
        fill: #3b601c;
      }

      .cls-2 {
        fill: #4e7a25;
      }

      .cls-3 {
        fill: #4d841e;
      }

      .cls-4 {
        fill: #315112;
      }

      .cls-5 {
        fill: #2c4415;
      }

      .cls-6 {
        fill: #cadd78;
      }

      .cls-7 {
        fill: #adbc55;
      }

      .cls-8 {
        fill: #67a829;
      }
    </style>
  </defs>
  <g id="vegetable" transform="translate(-18.534 -16.019)">
    <path id="XMLID_18_" class="cls-1" d="M395.3,265.8l-.044.044c-1.617,2.011-3.016,3.934-4.255,5.755l.015.015a5.035,5.035,0,0,0,7.591-3.555l.015-.044A6.307,6.307,0,0,1,395.3,265.8Z" transform="translate(-318.195 -213.386)"/>
    <path id="XMLID_53_" class="cls-2" d="M260.19,244.4l-3.41,7.329c-2.652,1.3-6.091-.219-7.256-1.938L249,246.833a15.792,15.792,0,0,0,2.36.175A16.191,16.191,0,0,0,260.19,244.4Z" transform="translate(-196.885 -195.104)"/>
    <path id="XMLID_54_" class="cls-1" d="M137.856,222.5a19.993,19.993,0,0,0,3.7,3.191c-.656,4.371-6.222,6.586-9.631,3.7-.772-1.5-1.3-2.535-1.326-2.594a8.723,8.723,0,0,0,7.256-4.3Z" transform="translate(-95.737 -176.395)"/>
    <path id="XMLID_55_" class="cls-1" d="M57.153,250.846l4.779,9.194-.058.029a6.28,6.28,0,0,1-8-8.961l.1-.408c.189.044.393.087.6.131A8.066,8.066,0,0,0,57.153,250.846Z" transform="translate(-29.416 -200.486)"/>
    <g id="XMLID_1_" transform="translate(23.532 50.214)">
      <path id="XMLID_11_" class="cls-3" d="M54.884,255.537a6.291,6.291,0,0,1-.233-4.677c-.073-.015-.131-.015-.2-.029a4.385,4.385,0,0,1-.6-.131l-.1.408a6.28,6.28,0,0,0,8,8.961l.073-.029-.466-.889A6.293,6.293,0,0,1,54.884,255.537Z" transform="translate(-52.835 -250.7)"/>
    </g>
    <g id="XMLID_12_" transform="translate(35.417 47.606)">
      <path id="XMLID_13_" class="cls-4" d="M142.632,232.8a6.115,6.115,0,0,1-8.232,3.847q.328.634.787,1.53c3.395,2.885,8.961.685,9.631-3.7A16.761,16.761,0,0,1,142.632,232.8Z" transform="translate(-134.4 -232.8)"/>
    </g>
    <path id="XMLID_15_" class="cls-5" d="M249,261.5l.51,2.9c1.151,1.719,4.6,3.235,7.256,1.938l1.3-2.8A9.739,9.739,0,0,1,249,261.5Z" transform="translate(-196.885 -209.712)"/>
    <g id="XMLID_16_" transform="translate(72.805 54.425)">
      <path id="XMLID_17_" class="cls-3" d="M396.333,281.3a5.012,5.012,0,0,1-4.269.539c-.364.525-.729,1.035-1.064,1.544l.015.015a5.035,5.035,0,0,0,7.591-3.555l.015-.044c-.219-.058-.437-.131-.641-.2A4.971,4.971,0,0,1,396.333,281.3Z" transform="translate(-391 -279.6)"/>
    </g>
    <path id="Path_459" data-name="Path 459" class="cls-6" d="M117.714,230.4l-9.34,19.933-2.725-15.46a15.6,15.6,0,0,1-6.28-2.448l1.18,14.207c.015,3.249-3.06,4.153-4.59,1.413l-8.67-16.713-6.091,2.04,16.48,31.764a6.219,6.219,0,0,0,5.8,3.949H110.2a6.341,6.341,0,0,0,5.945-4.386c2.4-6.936,4.371-13.988,10.491-23.065l5.289-7.664Z" transform="translate(-53.535 -183.144)"/>
    <g id="Group_154" data-name="Group 154" transform="translate(27.738 46.396)">
      <path id="Path_460" data-name="Path 460" class="cls-7" d="M113.027,281.063H106.31a6.234,6.234,0,0,1-5.8-3.949L84.235,245.7l-2.535.86,16.407,31.648a6.219,6.219,0,0,0,5.8,3.949h6.717a6.137,6.137,0,0,0,3.686-1.238A5.411,5.411,0,0,1,113.027,281.063Z" transform="translate(-81.7 -242.611)"/>
      <path id="Path_461" data-name="Path 461" class="cls-7" d="M208.523,245.8a17.382,17.382,0,0,1-2.623-1.4l1.18,14.207a3.877,3.877,0,0,1-.423,1.85c1.4.393,2.841-.729,2.841-2.958Z" transform="translate(-187.803 -241.5)"/>
      <path id="Path_462" data-name="Path 462" class="cls-7" d="M277.417,224.5,267.8,245.322l.423,2.375c.175,1.37.743,1.632,1.384,1.428A1.833,1.833,0,0,0,270.758,248l10.287-23.488Z" transform="translate(-240.684 -224.5)"/>
    </g>
    <path id="XMLID_27_" class="cls-1" d="M28.743,145.009a8.371,8.371,0,0,0-.51,10.928,8.125,8.125,0,0,0,2.331,1.982,7.954,7.954,0,1,1-2.754-14.673l.2-.058A8.2,8.2,0,0,0,28.743,145.009Z" transform="translate(0 -108.593)"/>
    <path id="XMLID_26_" class="cls-3" d="M122.8,50.636a9.209,9.209,0,0,1-10.782-3l-.029.015a16.7,16.7,0,0,1-11.016,4.269A16.485,16.485,0,0,1,88.63,46.1a8.814,8.814,0,0,1-2.054,2.375,8.508,8.508,0,0,1-9.5.845,8.125,8.125,0,0,1-2.331-1.982,8.39,8.39,0,0,1,.51-10.928,8.38,8.38,0,0,1-.729-1.807c-1.719-6.44,4.634-14.469,13.128-9.85,4.794-12.837,22.526-10.068,26.49-1.107,6.105-3,12.647,3.176,10.36,8h.219a9.165,9.165,0,0,1,7.956,13.74,5.752,5.752,0,0,1-4.2,9.69,6.25,6.25,0,0,1-5.683-4.444Z" transform="translate(-46.497 0)"/>
    <g id="XMLID_2_" transform="translate(26.44 39.286)">
      <path id="XMLID_10_" class="cls-8" d="M128.326,185.666a6.275,6.275,0,0,1-5.683-4.459,9.167,9.167,0,0,1-5.916.335,8.977,8.977,0,0,1-4.269-2.623,9.118,9.118,0,0,1-.6-.714l-.029.015a16.7,16.7,0,0,1-11.016,4.269,16.485,16.485,0,0,1-12.341-5.814,8.814,8.814,0,0,1-2.054,2.375,8.508,8.508,0,0,1-9.5.845,7.935,7.935,0,0,1-2.331-1.982,8.22,8.22,0,0,1-1.268-2.215,8.229,8.229,0,0,0,1.268,8.043,8.125,8.125,0,0,0,2.331,1.982,8.625,8.625,0,0,0,11.555-3.22,16.16,16.16,0,0,0,23.357,1.545l.029-.015a9.156,9.156,0,0,0,10.782,3,6.245,6.245,0,0,0,5.683,4.459,5.763,5.763,0,0,0,4.969-8.67A5.742,5.742,0,0,1,128.326,185.666Z" transform="translate(-72.796 -175.7)"/>
    </g>
    <g id="XMLID_6_" transform="translate(18.534 35.614)">
      <path id="XMLID_7_" class="cls-3" d="M28.335,162.346l-.262-.044a7.95,7.95,0,0,1-5.566-11.8,7.946,7.946,0,0,0,2.652,14.716,8,8,0,0,0,5.406-1.005,7.971,7.971,0,0,1-2.229-1.865Z" transform="translate(-18.534 -150.5)"/>
    </g>
  </g>
</svg>
