<svg xmlns="http://www.w3.org/2000/svg" viewBox="0 0 69 68.507">
  <defs>
    <style>
      .cls-1 {
        fill: #f9e8d4;
      }

      .cls-2 {
        fill: #e8d0ba;
      }

      .cls-3 {
        fill: #ef2929;
      }

      .cls-4 {
        fill: #d31a1a;
      }
    </style>
  </defs>
  <g id="rice" transform="translate(0 -1.831)">
    <path id="Path_333" data-name="Path 333" class="cls-1" d="M25.739,32.668c0-1.826-.676-3.08-.372-4.819.313-1.788,2.074-3.176,2.681-4.844.618-1.7.167-3.891,1.06-5.434s3.031-2.26,4.181-3.629,1.478-3.592,2.852-4.746,3.61-1.088,5.167-1.989,2.6-2.869,4.3-3.486c1.667-.607,3.748.219,5.536-.094,1.738-.3,3.411-1.8,5.236-1.8s3.5,1.493,5.236,1.8c1.788.313,3.868-.513,5.536.094,1.7.618,2.758,2.594,4.3,3.486s3.8.838,5.167,1.989,1.7,3.372,2.852,4.746,3.28,2.072,4.181,3.629.442,3.737,1.06,5.434c.607,1.667,2.368,3.056,2.681,4.844.3,1.738-.372,2.993-.372,4.819Z" transform="translate(-21.881)"/>
    <g id="Group_93" data-name="Group 93" transform="translate(14.444 3.65)">
      <path id="Path_334" data-name="Path 334" class="cls-2" d="M295.887,15.461c1.779.311,3.848-.51,5.506.093,1.688.615,2.744,2.58,4.278,3.468,1.549.9,3.776.835,5.139,1.978s1.689,3.354,2.836,4.72,3.263,2.061,4.159,3.61c.889,1.534.439,3.717,1.055,5.405.6,1.657,2.355,3.039,2.666,4.817.3,1.729-.369,2.977-.369,4.793h-3.034a5.918,5.918,0,0,0-.036-1.747c-.33-1.887-2.188-3.353-2.829-5.112-.652-1.791-.177-4.108-1.118-5.736-.952-1.645-3.2-2.385-4.414-3.831s-1.56-3.791-3.01-5.009-3.809-1.149-5.454-2.1a20.308,20.308,0,0,1-2.941-2.658C297.313,17.271,296.007,17,295.887,15.461Z" transform="translate(-270.455 -15.326)"/>
      <circle id="Ellipse_8" data-name="Ellipse 8" class="cls-2" cx="1.148" cy="1.148" r="1.148" transform="translate(32.145 13.166)"/>
      <circle id="Ellipse_9" data-name="Ellipse 9" class="cls-2" cx="1.148" cy="1.148" r="1.148" transform="translate(26.033 7.054)"/>
      <circle id="Ellipse_10" data-name="Ellipse 10" class="cls-2" cx="1.148" cy="1.148" r="1.148" transform="translate(24.886 13.969)"/>
      <circle id="Ellipse_11" data-name="Ellipse 11" class="cls-2" cx="1.148" cy="1.148" r="1.148" transform="translate(3.039 17.463)"/>
      <circle id="Ellipse_12" data-name="Ellipse 12" class="cls-2" cx="1.148" cy="1.148" r="1.148" transform="translate(0 23.566)"/>
    </g>
    <path id="Path_335" data-name="Path 335" class="cls-3" d="M68.1,230.482H.9a.9.9,0,0,0-.9.9v3.952a25.278,25.278,0,0,0,23.131,25.185v6.294a1.363,1.363,0,0,0,1.363,1.363H44.506a1.363,1.363,0,0,0,1.363-1.363v-6.294A25.278,25.278,0,0,0,69,235.333V231.38A.9.9,0,0,0,68.1,230.482Z" transform="translate(0 -197.837)"/>
    <path id="Path_336" data-name="Path 336" class="cls-4" d="M339.251,230.482H336.3v5.749c-1.846,16.725-16.173,22.666-20.307,24.042a6,6,0,0,1-1.9.308h0a.675.675,0,0,0-.675.675v6.918h2.237a1.363,1.363,0,0,0,1.363-1.363v-6.294a25.277,25.277,0,0,0,23.131-25.184V231.38A.9.9,0,0,0,339.251,230.482Z" transform="translate(-271.179 -197.837)"/>
  </g>
</svg>
