<svg xmlns="http://www.w3.org/2000/svg" viewBox="0 0 80.012 74.507">
  <defs>
    <style>
      .cls-1 {
        fill: #f1562e;
      }

      .cls-2 {
        fill: #fd7e42;
      }

      .cls-3 {
        fill: #fc5327;
      }

      .cls-4 {
        fill: #ed4322;
      }

      .cls-5 {
        fill: #554e57;
      }

      .cls-6 {
        fill: #453e43;
      }
    </style>
  </defs>
  <g id="shrimp" transform="translate(0 -17.613)">
    <g id="Group_126" data-name="Group 126" transform="translate(53.675 54.853)">
      <path id="Path_378" data-name="Path 378" class="cls-1" d="M344.78,267.7a1.2,1.2,0,0,1-1.158-.912c-.053-.216-1.23-5.347,3.954-10.531a1.189,1.189,0,0,1,1.682,1.682c-4.194,4.194-3.36,8.129-3.323,8.295a1.189,1.189,0,0,1-1.155,1.466Z" transform="translate(-343.472 -255.91)"/>
    </g>
    <g id="Group_127" data-name="Group 127" transform="translate(56.055 57.828)">
      <path id="Path_379" data-name="Path 379" class="cls-1" d="M359.892,284.659a1.191,1.191,0,0,1-1.177-1.366c.033-.22.887-5.415,7.648-8.249a1.189,1.189,0,1,1,.919,2.193c-5.542,2.323-6.21,6.368-6.216,6.409A1.19,1.19,0,0,1,359.892,284.659Z" transform="translate(-358.701 -274.952)"/>
    </g>
    <g id="Group_128" data-name="Group 128" transform="translate(48.968 54.591)">
      <path id="Path_380" data-name="Path 380" class="cls-1" d="M314.966,266.476a1.2,1.2,0,0,1-1.1-.738c-.085-.205-2.035-5.1,2.294-11.013a1.189,1.189,0,1,1,1.919,1.4c-3.5,4.787-2.075,8.548-2.013,8.706a1.188,1.188,0,0,1-1.1,1.64Z" transform="translate(-313.352 -254.239)"/>
    </g>
    <g id="Group_129" data-name="Group 129" transform="translate(46.02 41.904)">
      <path id="Path_381" data-name="Path 381" class="cls-2" d="M294.668,173.048h14.666a19.145,19.145,0,0,1,3.5,37.968l-7.459,1.388-3.16-8.206,8.859-5.413a4.472,4.472,0,0,0-2.331-8.288H294.488Z" transform="translate(-294.488 -173.048)"/>
    </g>
    <g id="Group_130" data-name="Group 130" transform="translate(0 17.613)">
      <path id="Path_382" data-name="Path 382" class="cls-2" d="M12.1,58.973c-5.247,0-9.155-1.627-10.981-4.733C-1.022,50.6-.066,45.534,3.807,39.963,7.5,34.657,13.446,29.432,20.56,25.25c11.257-6.617,23.034-9.232,30-6.664a1.189,1.189,0,0,1-.822,2.232c-6.23-2.3-17.473.309-27.976,6.483C8.178,35.287-.34,47.072,3.165,53.035c2.064,3.512,8.3,4.511,16.268,2.608a1.189,1.189,0,1,1,.552,2.313A34.294,34.294,0,0,1,12.1,58.973Z" transform="translate(0 -17.613)"/>
    </g>
    <g id="Group_131" data-name="Group 131" transform="translate(2.165 26.951)">
      <path id="Path_383" data-name="Path 383" class="cls-2" d="M30.274,108.318a1.183,1.183,0,0,1-.173-.013c-9.321-1.359-15.361-5.261-16.154-10.438-.639-4.168,2.126-8.525,7.786-12.266,5.391-3.564,12.852-6.215,21.009-7.466,12.906-1.98,24.815-.05,30.339,4.916a1.189,1.189,0,0,1-1.59,1.769c-4.938-4.439-16.346-6.181-28.388-4.333-7.824,1.2-14.948,3.721-20.058,7.1-4.771,3.154-7.23,6.77-6.747,9.921.618,4.026,6.038,7.262,14.147,8.445a1.189,1.189,0,0,1-.17,2.366Z" transform="translate(-13.856 -77.369)"/>
    </g>
    <g id="Group_133" data-name="Group 133" transform="translate(55.741 44.134)">
      <g id="Group_132" data-name="Group 132">
        <path id="Path_384" data-name="Path 384" class="cls-3" d="M370.79,187.321a19.144,19.144,0,0,1-9.168,33.174l-4.931.918,1.169,3.034,7.459-1.388a19.147,19.147,0,0,0,5.471-35.737Z" transform="translate(-356.691 -187.321)"/>
      </g>
    </g>
    <g id="Group_134" data-name="Group 134" transform="translate(61.229 41.941)">
      <path id="Path_385" data-name="Path 385" class="cls-3" d="M393.185,182.053c1.688.583,4.327-2.56,6.087-7.139a19.041,19.041,0,0,0-6.648-1.63C391.377,177.717,391.57,181.5,393.185,182.053Z" transform="translate(-391.813 -173.285)"/>
    </g>
    <g id="Group_135" data-name="Group 135" transform="translate(70.535 49.728)">
      <path id="Path_386" data-name="Path 386" class="cls-3" d="M457.129,223.12c-4.07,2.8-6.531,6.137-5.56,7.647.917,1.426,4.586.741,8.562-1.48A19.067,19.067,0,0,0,457.129,223.12Z" transform="translate(-451.358 -223.12)"/>
    </g>
    <g id="Group_136" data-name="Group 136" transform="translate(70.771 65.728)">
      <path id="Path_387" data-name="Path 387" class="cls-3" d="M461.3,326.322c-4.213-1.226-7.77-1.086-8.35.461-.548,1.46,1.728,3.719,5.331,5.52A19.134,19.134,0,0,0,461.3,326.322Z" transform="translate(-452.87 -325.5)"/>
    </g>
    <g id="Group_137" data-name="Group 137" transform="translate(74.747 49.728)">
      <path id="Path_388" data-name="Path 388" class="cls-4" d="M479.846,230.709a22.626,22.626,0,0,0,3.031-1.423,19.068,19.068,0,0,0-3-6.167c-.551.379-1.071.769-1.559,1.162A19.048,19.048,0,0,1,479.846,230.709Z" transform="translate(-478.315 -223.119)"/>
    </g>
    <g id="Group_138" data-name="Group 138" transform="translate(72.411 65.75)">
      <path id="Path_389" data-name="Path 389" class="cls-4" d="M465.836,325.642a19.162,19.162,0,0,1-2.472,4.321,17.477,17.477,0,0,0,3.773,2.46,19.134,19.134,0,0,0,3.019-5.981A20.06,20.06,0,0,0,465.836,325.642Z" transform="translate(-463.364 -325.642)"/>
    </g>
    <g id="Group_139" data-name="Group 139" transform="translate(33.849 70.642)">
      <path id="Path_390" data-name="Path 390" class="cls-2" d="M234.3,357.068l-16.375,3.374a1.65,1.65,0,0,0,.385,3.266l8.009-.25a.346.346,0,0,1,.187.643l-7.375,4.353a1.566,1.566,0,0,0,1.066,2.891l8.435-1.478a.346.346,0,0,1,.276.61l-6.252,5.011a1.65,1.65,0,0,0,1.829,2.733l14.644-8.068a5.7,5.7,0,0,0,2.6-6.962l-.928-2.516a5.7,5.7,0,0,0-6.5-3.608Z" transform="translate(-216.605 -356.95)"/>
    </g>
    <g id="Group_140" data-name="Group 140" transform="translate(37.627 70.649)">
      <path id="Path_391" data-name="Path 391" class="cls-3" d="M262.119,363.228l-.928-2.516a5.7,5.7,0,0,0-5.1-3.72l.12.325a5.7,5.7,0,0,1-2.6,6.962l-12.832,7.069,8.246-1.445a.346.346,0,0,1,.276.61l-6.252,5.011a1.65,1.65,0,0,0,1.829,2.733l14.644-8.068A5.7,5.7,0,0,0,262.119,363.228Z" transform="translate(-240.78 -356.992)"/>
    </g>
    <g id="Group_141" data-name="Group 141" transform="translate(11.023 37.863)">
      <path id="Path_392" data-name="Path 392" class="cls-2" d="M110.937,160.123c0,7.142-.734,12.932-7.876,12.932s-32.525-5.79-32.525-12.932,25.383-12.932,32.525-12.932S110.937,152.981,110.937,160.123Z" transform="translate(-70.536 -147.191)"/>
    </g>
    <g id="Group_142" data-name="Group 142" transform="translate(11.49 37.865)">
      <path id="Path_393" data-name="Path 393" class="cls-3" d="M105.669,147.2a28.909,28.909,0,0,1,.759,7.787c0,7.142-.734,12.932-7.876,12.932-4.635,0-16.948-2.439-25.025-6.1,3.481,6.345,25.487,11.246,32.058,11.246,7.142,0,7.876-5.79,7.876-12.932C113.461,153.021,112.731,147.251,105.669,147.2Z" transform="translate(-73.527 -147.205)"/>
    </g>
    <g id="Group_143" data-name="Group 143" transform="translate(21.719 46.411)">
      <circle id="Ellipse_21" data-name="Ellipse 21" class="cls-5" cx="3.148" cy="3.148" r="3.148"/>
    </g>
    <g id="Group_144" data-name="Group 144" transform="translate(21.85 46.542)">
      <path id="Path_394" data-name="Path 394" class="cls-6" d="M143.731,202.733a3.145,3.145,0,0,1-3.912,3.912,3.147,3.147,0,1,0,3.912-3.912Z" transform="translate(-139.819 -202.733)"/>
    </g>
  </g>
</svg>
