<svg xmlns="http://www.w3.org/2000/svg" viewBox="0 0 69 69.922">
  <defs>
    <style>
      .cls-1 {
        fill: #e64c3c;
      }

      .cls-2 {
        fill: #4fba6f;
      }

      .cls-3 {
        fill: #4c8056;
      }

      .cls-4 {
        fill: #f0c419;
      }

      .cls-5 {
        fill: #fff;
      }

      .cls-6 {
        fill: #f29c1f;
      }

      .cls-7 {
        fill: #9fc9d3;
      }

      .cls-8 {
        fill: #ff5364;
      }

      .cls-9 {
        fill: #d25627;
      }

      .cls-10 {
        fill: #f3d55b;
      }

      .cls-11 {
        fill: #805333;
      }

      .cls-12 {
        fill: #df4d60;
      }

      .cls-13 {
        fill: #c03a2b;
      }
    </style>
  </defs>
  <g id="juice" transform="translate(0.008 -0.017)">
    <g id="_044---Fruity-Drink" data-name="044---Fruity-Drink" transform="translate(-0.008 0.017)">
      <path id="Shape" class="cls-1" d="M15.468,6.06l.012.012a7.024,7.024,0,0,1,4.635,2.063,18.24,18.24,0,0,1,3.947,7.338l-6.1,6.8a18.3,18.3,0,0,1-7.895-4.09A6.975,6.975,0,0,1,8,13.552L9.636,7.72Z" transform="translate(0.307 1.103)"/>
      <path id="Shape-2" data-name="Shape" class="cls-2" d="M16.96,2.291a7.073,7.073,0,0,1-1.707,4.671c-.012.012-.024.024-.036.024-2.086,2.063-5.832,1.66-5.832,1.66s-.4-3.793,1.683-5.868A7.073,7.073,0,0,1,15.739,1.07,1.177,1.177,0,0,1,16.96,2.291Z" transform="translate(0.558 0.178)"/>
      <path id="Shape-3" data-name="Shape" class="cls-2" d="M8.927,13.3l-.036.036a7.057,7.057,0,0,1-4.671,1.7A1.177,1.177,0,0,1,3,13.807,7.012,7.012,0,0,1,4.707,9.137c2.074-2.086,5.856-1.671,5.856-1.671S10.978,11.2,8.927,13.3Z" transform="translate(-0.62 1.358)"/>
      <path id="Shape-4" data-name="Shape" class="cls-3" d="M10.561,9.555A1.185,1.185,0,0,1,9.713,9.2C5.851,5.233,4.193,4.935,4.178,4.934A1.144,1.144,0,0,1,3.041,3.748,1.226,1.226,0,0,1,4.275,2.563c.536,0,2.638.356,7.136,4.979a1.185,1.185,0,0,1-.85,2.015Z" transform="translate(-0.613 0.455)"/>
      <circle id="Oval" class="cls-4" cx="1.185" cy="1.185" r="1.185" transform="translate(16.605 11.834)"/>
      <circle id="Oval-2" data-name="Oval" class="cls-4" cx="1.185" cy="1.185" r="1.185" transform="translate(13.049 15.39)"/>
      <path id="Shape-5" data-name="Shape" class="cls-1" d="M24.342,61.79a7.951,7.951,0,0,1-6.366,1.363,6.567,6.567,0,0,1-1.577-.64,6.859,6.859,0,0,1-1.588.64C9.726,64.457,3.882,59.384,1.76,51.8S2.068,37,7.166,35.7a7.789,7.789,0,0,1,6.2,1.257,5.651,5.651,0,0,0,6.058,0,10.894,10.894,0,0,1,1.968-.984l4.5,11.973C25.919,48.134,24.259,61.624,24.342,61.79Z" transform="translate(-0.992 6.565)"/>
      <path id="Shape-6" data-name="Shape" class="cls-5" d="M5.778,51.149a1.185,1.185,0,0,1-1.142-.868c-1.213-4.353-.5-7.889.576-9.747A3.809,3.809,0,0,1,7.489,38.58a1.186,1.186,0,0,1,.593,2.3,1.7,1.7,0,0,0-.814.843,10.906,10.906,0,0,0-.345,7.925,1.185,1.185,0,0,1-1.145,1.5Z" transform="translate(-0.434 7.126)"/>
      <path id="Shape-7" data-name="Shape" class="cls-2" d="M16.634,35.012c-.427,1.7-3.177,2.478-6.164,1.743-2.063-.51-5.05-2.869-6.686-4.268a.786.786,0,0,1,.356-1.375c2.086-.427,5.8-1.031,7.859-.522,2.987.735,5.062,2.715,4.635,4.422Z" transform="translate(-0.527 5.616)"/>
      <path id="Shape-8" data-name="Shape" class="cls-6" d="M48.151,64.227a2.383,2.383,0,0,1-2.146,1.363H23.624a2.335,2.335,0,0,1-2.217-1.565,1.683,1.683,0,0,1-.142-.545L18.456,38.207,16.82,23.46l3.77,1.885a10.6,10.6,0,0,0,9.483,0,10.62,10.62,0,0,1,9.472,0l.012.012a10.646,10.646,0,0,0,9.472,0l3.781-1.9L50.593,43.411Z" transform="translate(1.942 4.33)"/>
      <path id="Shape-9" data-name="Shape" class="cls-7" d="M53.922,16.632l-.96,8.582-3.781,1.9a10.646,10.646,0,0,1-9.472,0L39.7,27.1a10.62,10.62,0,0,0-9.472,0,10.6,10.6,0,0,1-9.483,0l-3.77-1.885H16.96l-.486-4.41-.462-4.173A2.377,2.377,0,0,1,18.371,14H51.563a2.377,2.377,0,0,1,2.359,2.632Z" transform="translate(1.79 2.576)"/>
      <path id="Shape-10" data-name="Shape" class="cls-8" d="M25.185,65.2a1.185,1.185,0,0,1-1.112-1.6L44.226,9.069a1.185,1.185,0,0,1,.433-.56L56.513.211a1.185,1.185,0,0,1,1.359,1.942l-11.55,8.086L26.3,64.421a1.185,1.185,0,0,1-1.112.774Z" transform="translate(3.274 -0.017)"/>
      <g id="Group_149" data-name="Group 149" transform="translate(24.903 35.542)">
        <circle id="Oval-3" data-name="Oval" class="cls-9" cx="2.964" cy="2.964" r="2.964"/>
        <circle id="Oval-4" data-name="Oval" class="cls-9" cx="1.185" cy="1.185" r="1.185" transform="translate(0 10.669)"/>
        <circle id="Oval-5" data-name="Oval" class="cls-9" cx="1.185" cy="1.185" r="1.185" transform="translate(1.185 16.596)"/>
      </g>
      <path id="Shape-11" data-name="Shape" class="cls-4" d="M63.434,59.369a17.609,17.609,0,0,1-11.617,4.3A17.809,17.809,0,0,1,34,45.856a17.609,17.609,0,0,1,4.3-11.617,1.185,1.185,0,0,1,1.754-.095l2.489,2.489A13.076,13.076,0,0,0,61.039,55.126l2.489,2.489a1.185,1.185,0,0,1-.095,1.754Z" transform="translate(5.128 6.247)"/>
      <path id="Shape-12" data-name="Shape" class="cls-10" d="M60.3,54.683a12.882,12.882,0,0,1-6.887,3.592,11.935,11.935,0,0,1-2.347.225h-.024a13.015,13.015,0,0,1-8.322-3.047,10.6,10.6,0,0,1-1.683-1.683,13.015,13.015,0,0,1-3.047-8.322v-.024a11.935,11.935,0,0,1,.225-2.347,12.882,12.882,0,0,1,3.592-6.887Z" transform="translate(5.868 6.69)"/>
      <path id="Shape-13" data-name="Shape" class="cls-6" d="M53.412,57.2a11.935,11.935,0,0,1-2.347.225h-.024L51.03,46.054l-8.31,8.322a10.6,10.6,0,0,1-1.683-1.683l8.322-8.31L37.99,44.371v-.024A11.935,11.935,0,0,1,38.215,42l10.491.012L53.4,46.706Z" transform="translate(5.868 7.767)"/>
      <path id="Shape-14" data-name="Shape" class="cls-11" d="M14.175,43.125A1.185,1.185,0,0,1,12.99,41.94V39.569c0-6.046,3.025-8.82,4.829-9.935a1.185,1.185,0,0,1,1.247,2.015c-1.385.855-3.706,3.019-3.706,7.917v2.371a1.185,1.185,0,0,1-1.185,1.188Z" transform="translate(1.232 5.445)"/>
      <path id="Shape-15" data-name="Shape" class="cls-12" d="M41.97,14,37,27.455c-.261-.107-.522-.213-.782-.344l-.012-.012a8.875,8.875,0,0,0-1.4-.569L39.433,14Z" transform="translate(5.278 2.576)"/>
      <path id="Shape-16" data-name="Shape" class="cls-13" d="M38.225,25.151c.261.13.522.237.782.344L26.3,59.872a1.185,1.185,0,0,1-1.114.771,1.272,1.272,0,0,1-.415-.071,1.2,1.2,0,0,1-.7-1.529L36.815,24.57a8.875,8.875,0,0,1,1.4.569Z" transform="translate(3.274 4.535)"/>
    </g>
  </g>
</svg>
