<svg xmlns="http://www.w3.org/2000/svg" viewBox="0 0 82 84.106">
  <defs>
    <style>
      .cls-1 {
        fill: #d2d5d7;
      }

      .cls-2 {
        fill: #6a3311;
      }

      .cls-3 {
        fill: #ed3f32;
      }

      .cls-4 {
        fill: #f9da49;
      }

      .cls-5 {
        fill: #436b1c;
      }

      .cls-6 {
        fill: #659c35;
      }

      .cls-7 {
        fill: #a4e869;
      }
    </style>
  </defs>
  <g id="meat" transform="translate(-0.734 0)">
    <path id="Path_358" data-name="Path 358" class="cls-1" d="M7.295,43.606A1.435,1.435,0,0,1,6.28,41.157l6.677-6.677a1.434,1.434,0,0,1,2.029,2.029L8.309,43.185A1.431,1.431,0,0,1,7.295,43.606Z" transform="translate(2.228 14.806)"/>
    <path id="Path_359" data-name="Path 359" class="cls-1" d="M44,5.745A1.435,1.435,0,0,1,42.99,3.3L45.866.42a1.434,1.434,0,0,1,2.029,2.029L45.019,5.324A1.431,1.431,0,0,1,44,5.745Z" transform="translate(18.187)"/>
    <path id="Path_360" data-name="Path 360" class="cls-1" d="M53.2,20.1a1.435,1.435,0,0,1-1.014-2.449L58.1,11.733a1.435,1.435,0,1,1,2.029,2.029L54.212,19.68A1.43,1.43,0,0,1,53.2,20.1Z" transform="translate(22.183 4.918)"/>
    <g id="Group_120" data-name="Group 120" transform="translate(10.46 39.176)">
      <path id="Path_361" data-name="Path 361" class="cls-2" d="M17.047,41.893,8.931,33.777a1.438,1.438,0,0,1,0-2.029L11.974,28.7A1.438,1.438,0,0,1,14,28.7l8.116,8.116a1.438,1.438,0,0,1,0,2.029l-3.043,3.043A1.441,1.441,0,0,1,17.047,41.893Z" transform="translate(-7.079 -26.879)"/>
      <path id="Path_362" data-name="Path 362" class="cls-2" d="M18.5,44.173a2.86,2.86,0,0,1-2.029-.839L8.352,35.217a2.871,2.871,0,0,1,0-4.059L11.4,28.117a2.942,2.942,0,0,1,4.057,0l8.116,8.116a2.875,2.875,0,0,1,0,4.057l-3.044,3.043A2.866,2.866,0,0,1,18.5,44.173Zm0-2.868-1.014,1.014L18.5,41.3ZM13.424,30.144l-3.043,3.043L18.493,41.3l3.047-3.04Z" transform="translate(-7.513 -27.306)"/>
    </g>
    <circle id="Ellipse_17" data-name="Ellipse 17" class="cls-3" cx="7.174" cy="7.174" r="7.174" transform="translate(19.342 32.812)"/>
    <g id="Group_121" data-name="Group 121" transform="translate(25.677 23.931)">
      <path id="Path_363" data-name="Path 363" class="cls-2" d="M27.654,31.286,19.538,23.17a1.438,1.438,0,0,1,0-2.029L22.581,18.1a1.438,1.438,0,0,1,2.029,0l8.116,8.116a1.438,1.438,0,0,1,0,2.029l-3.043,3.043A1.438,1.438,0,0,1,27.654,31.286Z" transform="translate(-17.684 -16.245)"/>
      <path id="Path_364" data-name="Path 364" class="cls-2" d="M29.1,33.572a2.86,2.86,0,0,1-2.027-.836l-8.116-8.118a2.871,2.871,0,0,1,0-4.057L22,17.518a2.874,2.874,0,0,1,4.057,0l8.116,8.115a2.878,2.878,0,0,1,0,4.057l-3.044,3.044A2.859,2.859,0,0,1,29.1,33.572Zm0-2.868ZM24.03,19.547,20.987,22.59,29.1,30.7l3.047-3.04Z" transform="translate(-18.119 -16.68)"/>
    </g>
    <circle id="Ellipse_18" data-name="Ellipse 18" class="cls-3" cx="7.174" cy="7.174" r="7.174" transform="translate(34.559 17.594)"/>
    <g id="Group_122" data-name="Group 122" transform="translate(40.896 8.741)">
      <path id="Path_365" data-name="Path 365" class="cls-2" d="M38.26,20.679l-8.116-8.116a1.438,1.438,0,0,1,0-2.029l3.043-3.043a1.438,1.438,0,0,1,2.029,0l8.116,8.116a1.438,1.438,0,0,1,0,2.029l-3.043,3.043A1.438,1.438,0,0,1,38.26,20.679Z" transform="translate(-28.293 -5.666)"/>
      <path id="Path_366" data-name="Path 366" class="cls-2" d="M39.708,22.958a2.855,2.855,0,0,1-2.027-.838L29.565,14a2.875,2.875,0,0,1,0-4.057L32.608,6.9a2.941,2.941,0,0,1,4.059,0l8.115,8.113a2.874,2.874,0,0,1,0,4.057l-3.043,3.044A2.87,2.87,0,0,1,39.708,22.958Zm0-2.867L38.7,21.106l1.014-1.014ZM34.637,8.931l-3.043,3.043,8.113,8.113,3.046-3.042Z" transform="translate(-28.727 -6.092)"/>
    </g>
    <circle id="Ellipse_19" data-name="Ellipse 19" class="cls-3" cx="7.174" cy="7.174" r="7.174" transform="translate(49.777 2.377)"/>
    <path id="Path_367" data-name="Path 367" class="cls-1" d="M15.014,58.112A1.435,1.435,0,0,1,14,55.663l5.347-5.347a1.434,1.434,0,1,1,2.029,2.029l-5.347,5.347A1.431,1.431,0,0,1,15.014,58.112Z" transform="translate(5.584 21.69)"/>
    <path id="Path_368" data-name="Path 368" class="cls-4" d="M21.775,49.469V40.861a1.439,1.439,0,0,1,1.435-1.435h8.608a1.439,1.439,0,0,1,1.435,1.435v8.608A1.439,1.439,0,0,1,31.818,50.9H23.21A1.439,1.439,0,0,1,21.775,49.469Z" transform="translate(9.147 17.139)"/>
    <g id="Group_123" data-name="Group 123" transform="translate(20.926 62.932)">
      <path id="Path_369" data-name="Path 369" class="cls-5" d="M21.928,56.054l-5.073-5.073a3.6,3.6,0,0,1,0-5.073h0a3.6,3.6,0,0,1,5.073,0L27,50.981a3.6,3.6,0,0,1,0,5.073h0A3.6,3.6,0,0,1,21.928,56.054Z" transform="translate(-14.373 -43.43)"/>
      <path id="Path_370" data-name="Path 370" class="cls-5" d="M24.9,58.972A5.01,5.01,0,0,1,21.349,57.5l-5.073-5.073a5.021,5.021,0,0,1,7.1-7.1L28.449,50.4a5.019,5.019,0,0,1-3.551,8.57Zm-5.07-12.244A2.15,2.15,0,0,0,18.3,50.4l5.073,5.073a2.153,2.153,0,0,0,3.043-3.046l-5.072-5.072A2.157,2.157,0,0,0,19.828,46.728Z" transform="translate(-14.808 -43.864)"/>
    </g>
    <g id="Group_124" data-name="Group 124" transform="translate(37.731 46.177)">
      <path id="Path_371" data-name="Path 371" class="cls-6" d="M33.639,44.343,28.566,39.27a3.6,3.6,0,0,1,0-5.073h0a3.6,3.6,0,0,1,5.073,0l5.073,5.073a3.6,3.6,0,0,1,0,5.073h0A3.6,3.6,0,0,1,33.639,44.343Z" transform="translate(-26.087 -31.766)"/>
      <path id="Path_372" data-name="Path 372" class="cls-6" d="M36.61,47.245a5.01,5.01,0,0,1-3.551-1.468l-5.072-5.072a5.033,5.033,0,0,1,0-7.1,5.153,5.153,0,0,1,7.1,0l5.073,5.072a5.019,5.019,0,0,1-3.551,8.57Zm-5.073-12.24a2.153,2.153,0,0,0-1.522,3.671l5.072,5.072a2.215,2.215,0,0,0,3.044,0,2.156,2.156,0,0,0,0-3.043l-5.073-5.072A2.128,2.128,0,0,0,31.537,35.005Z" transform="translate(-26.521 -32.186)"/>
    </g>
    <path id="Path_373" data-name="Path 373" class="cls-4" d="M40.867,30.378V21.77A1.439,1.439,0,0,1,42.3,20.335H50.91a1.439,1.439,0,0,1,1.435,1.435v8.608a1.439,1.439,0,0,1-1.435,1.435H42.3A1.439,1.439,0,0,1,40.867,30.378Z" transform="translate(17.446 8.84)"/>
    <path id="Path_374" data-name="Path 374" class="cls-1" d="M6.47,48.927a5.735,5.735,0,0,1-4.057-9.793,1.434,1.434,0,0,1,2.029,2.029,2.87,2.87,0,1,0,4.059,0,1.434,1.434,0,0,1,2.029-2.029A5.735,5.735,0,0,1,6.47,48.927Z" transform="translate(0 16.829)"/>
    <circle id="Ellipse_20" data-name="Ellipse 20" class="cls-3" cx="7.174" cy="7.174" r="7.174" transform="translate(46.734 37.885)"/>
    <path id="Path_375" data-name="Path 375" class="cls-1" d="M13.318,62.1a5.739,5.739,0,0,1,0-11.478,1.435,1.435,0,0,1,0,2.869,2.869,2.869,0,1,0,2.869,2.869,1.435,1.435,0,0,1,2.869,0A5.745,5.745,0,0,1,13.318,62.1Z" transform="translate(2.976 22.006)"/>
    <g id="Group_125" data-name="Group 125" transform="translate(65.121 18.786)">
      <path id="Path_376" data-name="Path 376" class="cls-7" d="M52.731,25.251l-5.073-5.073a3.6,3.6,0,0,1,0-5.073h0a3.6,3.6,0,0,1,5.073,0L57.8,20.178a3.6,3.6,0,0,1,0,5.073h0A3.6,3.6,0,0,1,52.731,25.251Z" transform="translate(-45.177 -12.674)"/>
      <path id="Path_377" data-name="Path 377" class="cls-7" d="M55.7,28.153a5.01,5.01,0,0,1-3.551-1.468l-5.072-5.072a5.033,5.033,0,0,1,0-7.1,5.153,5.153,0,0,1,7.1,0l5.073,5.072a5.019,5.019,0,0,1-3.551,8.57ZM50.629,15.915a2.153,2.153,0,0,0-1.522,3.671l5.072,5.072a2.217,2.217,0,0,0,3.044,0,2.156,2.156,0,0,0,0-3.043L52.15,16.543A2.122,2.122,0,0,0,50.629,15.915Z" transform="translate(-45.612 -13.093)"/>
    </g>
  </g>
</svg>
