<svg xmlns="http://www.w3.org/2000/svg" viewBox="0 0 75.381 47.709">
  <defs>
    <style>
      .cls-1 {
        fill: #ffefd2;
      }

      .cls-2 {
        fill: #c86d36;
      }

      .cls-3 {
        fill: #fece85;
      }

      .cls-4 {
        fill: #dc8758;
      }

      .cls-5 {
        fill: #ac5e2e;
      }

      .cls-6 {
        fill: #fee8c7;
      }

      .cls-7 {
        fill: #f2fbff;
      }

      .cls-8 {
        fill: #5a5a5a;
      }

      .cls-9 {
        fill: #fedba6;
      }

      .cls-10 {
        fill: #fec165;
      }
    </style>
  </defs>
  <g id="food-and-restaurant" transform="translate(0 -93.977)">
    <path id="Path_438" data-name="Path 438" class="cls-1" d="M23.74,143.48H45.782c10.858-5.449,18.525-18.707,18.525-34.2v-6.508a1.069,1.069,0,0,0-1.069-1.069H6.284a1.069,1.069,0,0,0-1.069,1.069v6.508C5.215,124.773,12.881,138.031,23.74,143.48Z" transform="translate(-4.447 -6.589)"/>
    <path id="Path_439" data-name="Path 439" class="cls-2" d="M51.291,168.237a27.374,27.374,0,0,1-10.463-10.9,37.585,37.585,0,0,1-4.5-18.137v-2.411h49.93V139.2a37.585,37.585,0,0,1-4.5,18.137,27.376,27.376,0,0,1-10.464,10.9Z" transform="translate(-30.98 -36.511)"/>
    <path id="Path_440" data-name="Path 440" class="cls-3" d="M.03,386.434a5.273,5.273,0,0,0,5.069,3.82h49.13a5.274,5.274,0,0,0,5.069-3.82.763.763,0,0,0-.734-.974H.764a.763.763,0,0,0-.734.974Z" transform="translate(0 -248.568)"/>
    <path id="Path_441" data-name="Path 441" class="cls-4" d="M126.827,201.663H114.306a1.527,1.527,0,0,1-1.527-1.527V183.921a1.527,1.527,0,0,1,1.527-1.527h12.521a1.527,1.527,0,0,1,1.527,1.527v16.216A1.527,1.527,0,0,1,126.827,201.663Z" transform="translate(-96.175 -75.399)"/>
    <g id="Group_150" data-name="Group 150" transform="translate(23.254 93.977)">
      <path id="Path_442" data-name="Path 442" class="cls-5" d="M159.083,111.411a1.137,1.137,0,0,1-1.137-1.137V95.114a1.137,1.137,0,1,1,2.275,0v15.159A1.137,1.137,0,0,1,159.083,111.411Z" transform="translate(-157.946 -93.977)"/>
    </g>
    <path id="Path_443" data-name="Path 443" class="cls-6" d="M369.191,158.922a8.4,8.4,0,0,0-10.112-4.122q-.071.023-.141.052l-4.4,1.808q-.115,2.178-.429,4.283h.447c.552,0,.339.028,5.871-2.247a4.307,4.307,0,0,1,3.789,7.612l-.073.055-12.92,10.156H348.57a35.752,35.752,0,0,1-2.934,4.123h6.3a2.06,2.06,0,0,0,1.274-.441l13.448-10.571a8.473,8.473,0,0,0,2.529-10.707Z" transform="translate(-294.748 -51.504)"/>
    <path id="Path_444" data-name="Path 444" class="cls-7" d="M58.8,139.821l-5.2,5.024a.91.91,0,0,0-.278.654v12.68a.91.91,0,0,0,.91.91h10.4a.91.91,0,0,0,.91-.91V145.5a.91.91,0,0,0-.278-.654l-5.2-5.025a.91.91,0,0,0-1.265,0Z" transform="translate(-45.477 -38.876)"/>
    <g id="Group_151" data-name="Group 151" transform="translate(12.822 93.977)">
      <path id="Path_445" data-name="Path 445" class="cls-8" d="M88.224,106.826a1.137,1.137,0,0,1-1.137-1.137V95.114a1.137,1.137,0,0,1,2.275,0v10.574A1.137,1.137,0,0,1,88.224,106.826Z" transform="translate(-87.087 -93.977)"/>
    </g>
    <path id="Path_446" data-name="Path 446" class="cls-9" d="M263.344,101.7h-6.019a1.069,1.069,0,0,1,1.069,1.069v6.508c0,15.493-7.666,28.751-18.525,34.2h6.019c10.858-5.449,18.525-18.707,18.525-34.2v-6.508A1.069,1.069,0,0,0,263.344,101.7Z" transform="translate(-204.553 -6.588)"/>
    <path id="Path_447" data-name="Path 447" class="cls-10" d="M342.786,385.459h-5.159a.764.764,0,0,1,.734.974,5.274,5.274,0,0,1-5.069,3.82h5.159a5.274,5.274,0,0,0,5.069-3.82A.764.764,0,0,0,342.786,385.459Z" transform="translate(-284.221 -248.567)"/>
    <g id="Group_152" data-name="Group 152" transform="translate(53.752 102.871)">
      <path id="Path_448" data-name="Path 448" class="cls-9" d="M385.782,158.934a8.392,8.392,0,0,0-9.178-4.37,8.437,8.437,0,0,1,3.209,15.077l-13.448,10.57a2.061,2.061,0,0,1-1.274.441h3.44a2.061,2.061,0,0,0,1.274-.441l13.448-10.57A8.472,8.472,0,0,0,385.782,158.934Z" transform="translate(-365.092 -154.387)"/>
    </g>
    <path id="Path_449" data-name="Path 449" class="cls-5" d="M247.915,136.792V139.2a37.586,37.586,0,0,1-4.5,18.137,27.375,27.375,0,0,1-10.464,10.9h6.019a27.376,27.376,0,0,0,10.464-10.9,37.585,37.585,0,0,0,4.5-18.137v-2.411Z" transform="translate(-198.655 -36.511)"/>
  </g>
</svg>
